<svg xmlns="http://www.w3.org/2000/svg" viewBox="0 0 108 108" width="108" height="108">
  <!-- Outer circle (Savia green) -->
  <path fill="#2D6A4F" d="M54,2 A52,52 0 1,1 54,106 A52,52 0 1,1 54,2 Z" />
  <!-- Inner face area (white) -->
  <path fill="#FFFFFF" d="M54,18 A36,36 0 1,1 54,90 A36,36 0 1,1 54,18 Z" />
  <!-- Left ear tuft -->
  <path fill="#2D6A4F" d="M30,28 L24,10 L38,22 Z" />
  <!-- Right ear tuft -->
  <path fill="#2D6A4F" d="M78,28 L84,10 L70,22 Z" />
  <!-- Left eye outer (light green ring) -->
  <path fill="#95D5B2" d="M38,48 A13,13 0 1,1 38,74 A13,13 0 1,1 38,48 Z" />
  <!-- Left eye white -->
  <path fill="#FFFFFF" d="M38,50 A11,11 0 1,1 38,72 A11,11 0 1,1 38,50 Z" />
  <!-- Left pupil -->
  <path fill="#2D6A4F" d="M38,54 A7,7 0 1,1 38,68 A7,7 0 1,1 38,54 Z" />
  <!-- Left eye highlight -->
  <path fill="#FFFFFF" d="M34,56 A2.5,2.5 0 1,1 34,61 A2.5,2.5 0 1,1 34,56 Z" />
  <!-- Right eye outer (light green ring) -->
  <path fill="#95D5B2" d="M70,48 A13,13 0 1,1 70,74 A13,13 0 1,1 70,48 Z" />
  <!-- Right eye white -->
  <path fill="#FFFFFF" d="M70,50 A11,11 0 1,1 70,72 A11,11 0 1,1 70,50 Z" />
  <!-- Right pupil -->
  <path fill="#2D6A4F" d="M70,54 A7,7 0 1,1 70,68 A7,7 0 1,1 70,54 Z" />
  <!-- Right eye highlight -->
  <path fill="#FFFFFF" d="M66,56 A2.5,2.5 0 1,1 66,61 A2.5,2.5 0 1,1 66,56 Z" />
  <!-- Glasses bridge -->
  <path stroke="#2D6A4F" stroke-width="2" fill="none" d="M51,61 C52,58 56,58 57,61" />
  <!-- Left glasses arm -->
  <path stroke="#2D6A4F" stroke-width="1.5" fill="none" d="M25,59 L22,52" />
  <!-- Right glasses arm -->
  <path stroke="#2D6A4F" stroke-width="1.5" fill="none" d="M83,59 L86,52" />
  <!-- Beak -->
  <path fill="#52B788" d="M54,72 L49,80 L59,80 Z" />
  <!-- Small smile line -->
  <path stroke="#2D6A4F" stroke-width="1.2" fill="none" d="M47,84 Q54,88 61,84" />
</svg>
